<svg width="56" height="56" viewBox="0 0 56 56" fill="none" xmlns="http://www.w3.org/2000/svg">
<g filter="url(#filter0_d)">
<circle cx="28" cy="28" r="20" fill="#7B902C"/>
</g>
<path fill-rule="evenodd" clip-rule="evenodd" d="M28 18C24.13 18 21 21.13 21 25C21 30.25 28 38 28 38C28 38 35 30.25 35 25C35 21.13 31.87 18 28 18ZM23 25C23 22.24 25.24 20 28 20C30.76 20 33 22.24 33 25C33 27.88 30.12 32.19 28 34.88C25.92 32.21 23 27.85 23 25ZM25.5 25C25.5 23.6193 26.6193 22.5 28 22.5C28.8932 22.5 29.7185 22.9765 30.1651 23.75C30.6116 24.5235 30.6116 25.4765 30.1651 26.25C29.7185 27.0235 28.8932 27.5 28 27.5C26.6193 27.5 25.5 26.3807 25.5 25Z" fill="white"/>
<defs>
<filter id="filter0_d" x="0" y="0" width="56" height="56" filterUnits="userSpaceOnUse" color-interpolation-filters="sRGB">
<feFlood flood-opacity="0" result="BackgroundImageFix"/>
<feColorMatrix in="SourceAlpha" type="matrix" values="0 0 0 0 0 0 0 0 0 0 0 0 0 0 0 0 0 0 127 0"/>
<feOffset/>
<feGaussianBlur stdDeviation="4"/>
<feColorMatrix type="matrix" values="0 0 0 0 0 0 0 0 0 0 0 0 0 0 0 0 0 0 0.25 0"/>
<feBlend mode="normal" in2="BackgroundImageFix" result="effect1_dropShadow"/>
<feBlend mode="normal" in="SourceGraphic" in2="effect1_dropShadow" result="shape"/>
</filter>
</defs>
</svg>
